<svg xmlns="http://www.w3.org/2000/svg" width="512" height="512"><path fill="#53a3ec" d="M311 122.204c-17.03-6.715-35.584-10.404-55-10.404-82.843 0-150 67.157-150 150s67.157 150 150 150c19.416 0 37.97-3.689 55-10.404 55.633-21.937 95-76.169 95-139.596s-39.367-117.66-95-139.596"/><path fill="#4293dd" d="M216 261.8c0-63.427 39.367-117.659 95-139.596-17.03-6.715-35.584-10.404-55-10.404-82.843 0-150 67.157-150 150s67.157 150 150 150c19.416 0 37.97-3.689 55-10.404-55.633-21.937-95-76.17-95-139.596"/><ellipse cx="176.443" cy="237.659" fill="#ff8e9e" rx="29.355" ry="23.377"/><ellipse cx="335.557" cy="237.659" fill="#ff8e9e" rx="29.355" ry="23.377"/><g fill="#ea5b70"><circle cx="102.865" cy="102.701" r="35"/><circle cx="197.271" cy="409.3" r="35"/><circle cx="450.438" cy="247.133" r="25"/></g><path d="M482.924 246.61c-.281-17.68-14.741-31.978-32.487-31.978-13.605 0-25.277 8.407-30.114 20.295a824 824 0 0 0-9.32-1.095 156 156 0 0 0-11.272-36.511c14.575-27.587 36.132-76.834 14.901-99.722-16.505-17.791-51.334-11.12-98.268 18.714-38.13-15.824-81.886-16.214-120.78-.033-19.418-12.341-36.815-20.769-51.823-25.108-5.036-17.848-21.457-30.972-40.896-30.972-23.435 0-42.5 19.065-42.5 42.5 0 19.278 12.906 35.589 30.529 40.772 3.517 15.585 10.901 33.889 21.419 53.76a156.8 156.8 0 0 0-11.319 36.6c-28.278 3.159-51.834 7.206-68.364 11.757C17.438 249.773 0 256.185 0 268.737c0 11.229 14.073 17.215 24.659 20.739 22.344 7.442 56.327 12.01 79.605 14.526a157.5 157.5 0 0 0 11.073 28.61c-27.812 50.504-34.216 87.873-17.971 105.387 16.064 17.321 45.894 8.336 67.251-1.532 7.802 9.362 19.543 15.333 32.654 15.333 20.183 0 37.316-14.394 41.507-33.447 21.782 2.376 44.241.323 65.984-6.759 18.4 12.667 35.807 22.45 51.317 28.628a7.5 7.5 0 0 0 5.551-13.935c-12.183-4.853-25.65-12.103-39.906-21.342 26.215-12.034 49.264-31.257 66.127-57.008 13.371 25.852 20.649 48.127 20.649 63.524 0 15.565-7.029 21.729-20.419 21.32-4.12-.085-7.595 3.139-7.716 7.278a7.5 7.5 0 0 0 7.278 7.716c23.419.674 35.856-13.774 35.856-36.314 0-19.738-9.261-46.941-26.813-78.823a156 156 0 0 0 11.089-28.639c23.371-2.527 57.266-7.095 79.565-14.522 10.586-3.524 24.659-9.51 24.659-20.739.001-9.231-9.03-16.154-29.075-22.128m-32.486-16.977c9.649 0 17.5 7.851 17.5 17.5s-7.851 17.5-17.5 17.5-17.5-7.851-17.5-17.5 7.85-17.5 17.5-17.5m-54.747 60.519c-19.502 1.885-40.738 3.356-63.086 4.379 22.795-27.157 42.503-54.612 57.773-80.5 8.28 23.501 10.558 49.86 5.313 76.121m7.945-182.351c9.654 10.408 5.089 37.312-12.446 73.183-14.708-24.532-35.108-43.8-58.792-56.931 34.622-20.567 61.416-26.84 71.238-16.252M75.365 102.7c0-15.164 12.337-27.5 27.5-27.5s27.5 12.336 27.5 27.5-12.337 27.5-27.5 27.5-27.5-12.335-27.5-27.5m31.35 42.318c20.101-1.814 36.206-17.677 38.391-37.671 10.239 3.584 21.899 9.232 34.469 16.696a159 159 0 0 0-16.071 10.263 7.5 7.5 0 0 0 8.819 12.135c70.591-51.298 171.02-27.316 210.63 50.329-16.247 29.336-40.021 63.318-70.765 98.562a1743 1743 0 0 1-112.36 0c-29.282-33.602-53.767-67.847-70.739-98.379a142.5 142.5 0 0 1 21.99-31.579 7.5 7.5 0 0 0-.444-10.597 7.5 7.5 0 0 0-10.597.444 158 158 0 0 0-19.275 25.818c-6.378-13.044-11.148-25.185-14.048-36.021m191.654 165.716c-14.165 15.364-28.23 29.367-42.383 42.353-14.101-12.947-28.219-27.012-42.35-42.353 27.98.671 56.745.671 84.733 0m-118.933-16.201c-22.342-1.022-43.573-2.492-63.072-4.376a142.5 142.5 0 0 1 5.362-76.138c15.149 25.643 34.837 53.207 57.71 80.514m-163.76-25.796c3.369-2.855 18.924-12.136 83.338-19.582-1.031 12.905-.536 25.888 1.785 39.37-16.367-1.864-72.204-8.851-85.123-19.788m177.164 41.368c16.555 18.683 34.113 36.616 51.94 53.037a574 574 0 0 1-18.276 15.352c-15.584-14.796-39.265-15.477-55.67-2.461a142.63 142.63 0 0 1-50.422-70.424c22.342 2.042 46.744 3.556 72.428 4.496m-84.476 117.693c-8.186-8.825-7.847-34.323 15.785-79.869a157.7 157.7 0 0 0 36.749 39.396 42.43 42.43 0 0 0-3.72 36.055c-23.759 10.773-41.386 12.427-48.814 4.418m88.907 9.002c-23.899 0-36.33-28.511-20.304-46.045 16.828-18.414 47.804-6.534 47.804 18.518l-.016.509v.01c-.26 14.891-12.589 27.008-27.484 27.008m42.07-33.491a42.2 42.2 0 0 0-3.926-12.728 593 593 0 0 0 20.588-17.34c11.214 9.864 22.351 18.968 33.238 27.167-16.148 3.86-32.948 4.877-49.9 2.901m68.908-8.891c-.417.164-.836.317-1.254.478-12.889-9.228-26.26-19.896-39.793-31.746 17.6-16.218 35.031-33.955 51.967-53.045 25.723-.941 50.159-2.458 72.526-4.505-12.765 39.952-42.754 72.772-83.446 88.818m102.969-105.896a157.7 157.7 0 0 0 1.773-39.364q2.56.297 5.063.604c1.344 16.694 15.35 29.87 32.384 29.87 12.844 0 23.97-7.49 29.244-18.331 10.81 3.318 15.074 6.084 16.648 7.43-12.905 10.942-68.988 17.955-85.112 19.791"/><path d="M193.551 222.656c4.143 0 7.5-3.357 7.5-7.5v-12c0-4.143-3.357-7.5-7.5-7.5s-7.5 3.357-7.5 7.5v12c0 4.143 3.357 7.5 7.5 7.5m124.897 0c4.143 0 7.5-3.357 7.5-7.5v-12c0-4.143-3.357-7.5-7.5-7.5s-7.5 3.357-7.5 7.5v12a7.5 7.5 0 0 0 7.5 7.5M256 229.8c8.478 0 16.54-3.672 22.118-10.074a7.5 7.5 0 0 0-.728-10.581 7.5 7.5 0 0 0-10.581.728c-2.729 3.132-6.669 4.928-10.81 4.928s-8.08-1.796-10.81-4.928a7.5 7.5 0 0 0-11.309 9.853A29.34 29.34 0 0 0 256 229.8"/></svg>