<svg xmlns="http://www.w3.org/2000/svg" xml:space="preserve" viewBox="0 0 512 512"><circle cx="378.399" cy="399.3" r="102.7" style="fill:#00baff"/><circle cx="170.619" cy="118.07" r="108.07" style="fill:#31a88c"/><circle cx="262.569" cy="276.3" r="154.05" style="fill:#fad457"/><circle cx="371.239" cy="160.47" r="125.39" style="fill:#efefef"/><path d="M214.67 421.12c-14.818 40.941-54.922 69.773-101.448 67.633-52.613-2.42-95.317-45.124-97.737-97.737-2.14-46.526 26.692-86.63 67.633-101.448 18.493-6.693 39.207-1.849 53.114 12.058l66.38 66.38c13.907 13.906 18.751 34.621 12.058 53.114" style="fill:#e65e5e"/><path d="M425.329 296.873q.794-6.324 1.098-12.788c47.221-21.165 80.199-68.611 80.199-123.619 0-74.653-60.734-135.388-135.388-135.388-37.198 0-70.938 15.082-95.433 39.448C256.25 26.266 216.452 0 170.616 0 105.511 0 52.544 52.968 52.544 118.073c0 42.521 22.606 79.845 56.42 100.635-6.745 17.928-10.444 37.335-10.444 57.592 0 .113.005.224.006.337a59.6 59.6 0 0 0-18.81 3.526c-22.083 7.993-41.556 23.124-54.832 42.605-13.818 20.276-20.522 44.034-19.387 68.706 1.285 27.942 12.993 54.329 32.965 74.302 19.972 19.972 46.359 31.679 74.302 32.964q2.69.124 5.361.124c22.742 0 44.542-6.697 63.345-19.511 16.429-11.196 29.745-26.809 38.313-44.668a163.7 163.7 0 0 0 42.786 5.663c3.613 0 7.196-.13 10.752-.362C289.674 482.078 330.603 512 378.403 512c62.142 0 112.698-50.557 112.698-112.699 0-45.401-26.998-84.594-65.772-102.428M371.238 45.078c63.625 0 115.388 51.763 115.388 115.388s-51.763 115.389-115.388 115.389-115.389-51.763-115.389-115.389S307.612 45.078 371.238 45.078M72.544 118.073C72.544 63.995 116.539 20 170.616 20c41.063 0 76.303 25.372 90.891 61.259a135.2 135.2 0 0 0-17.168 32.02c-55.273 6.14-102.35 39.841-127.122 87.018-26.872-17.511-44.673-47.827-44.673-82.224m132.722 299.643c-13.396 37.017-48.085 61.149-87.196 61.147a95 95 0 0 1-4.389-.101c-47.286-2.175-86.031-40.92-88.207-88.207-1.881-40.883 22.652-77.688 61.047-91.585a39.7 39.7 0 0 1 13.537-2.363c10.672 0 21.241 4.228 29.103 12.089l66.38 66.381c11.222 11.222 15.039 27.958 9.725 42.639m21.229-1.951c3.845-19.587-2.314-40.332-16.812-54.83l-66.38-66.381a61.3 61.3 0 0 0-24.744-15.04c-.024-1.068-.04-2.139-.04-3.213 0-71.193 51.918-130.477 119.878-142.008a135.5 135.5 0 0 0-2.548 26.173c0 74.653 60.735 135.389 135.389 135.389 11.95 0 23.54-1.563 34.585-4.484-7.558 72.372-68.916 128.979-143.255 128.979-12.454 0-24.54-1.599-36.073-4.585M378.403 492c-37.564 0-69.965-22.467-84.512-54.663 62.148-12.066 111.89-59.316 127.559-120.115 29.494 15.531 49.652 46.493 49.652 82.079-.001 51.114-41.585 92.699-92.699 92.699" style="fill:#231f20"/><path d="M371.237 249.942c32.006 0 61.789-17.313 77.726-45.181 2.742-4.794 1.078-10.903-3.717-13.645-4.795-2.743-10.903-1.077-13.645 3.717-12.385 21.655-35.515 35.108-60.364 35.108-5.522 0-10 4.478-10 10s4.478 10.001 10 10.001m79.362-78.681.112.001c5.472 0 9.937-4.404 9.997-9.89q.006-.452.005-.906c0-5.522-4.478-10-10-10s-10 4.478-10 10l-.003.686c-.061 5.522 4.367 10.048 9.889 10.109" style="fill:#231f20"/></svg>