<svg xmlns="http://www.w3.org/2000/svg" xml:space="preserve" viewBox="0 0 511.999 511.999"><path d="M366.612 72.121v127.724l-110.613 63.862-110.612-63.862V72.121L255.999 8.259z" style="fill:#5cc4e0"/><path d="m176.305 54.504-30.918 17.617v127.724L256 263.707l30.715-17.734-110.41-63.745z" style="fill:#439ee8"/><path d="M243.294 287.93v127.724l-110.615 63.862-110.613-63.862V287.93l110.613-63.862z" style="fill:#faec8e"/><path d="M52.985 270.313 22.066 287.93v127.724l110.614 63.862 30.716-17.733-110.411-63.746z" style="fill:#fbc96c"/><path d="M490.021 287.93v127.724l-110.613 63.862-110.615-63.862V287.93l110.615-63.862z" style="fill:#ff675c"/><path d="m299.712 270.313-30.919 17.617v127.724l110.615 63.862 30.715-17.733-110.411-63.746z" style="fill:#db3d5a"/><path d="M251.551 415.654V287.93a8.26 8.26 0 0 0-4.129-7.151l-110.613-63.862a8.26 8.26 0 0 0-8.258 0L17.937 280.779a8.26 8.26 0 0 0-4.129 7.151v127.724a8.26 8.26 0 0 0 4.129 7.151l110.613 63.862a8.25 8.25 0 0 0 8.258 0l110.613-63.862a8.25 8.25 0 0 0 4.13-7.151m-16.516-4.768L132.68 469.98 30.324 410.887V292.698l102.355-59.094 102.355 59.094v118.188zm259.026-130.107-110.613-63.862a8.26 8.26 0 0 0-8.258 0l-110.613 63.862a8.26 8.26 0 0 0-4.129 7.151v127.724a8.26 8.26 0 0 0 4.129 7.151l110.613 63.862a8.25 8.25 0 0 0 8.258 0l110.613-63.862a8.26 8.26 0 0 0 4.129-7.151V287.93a8.26 8.26 0 0 0-4.129-7.151m-12.387 130.107L379.319 469.98l-102.355-59.094V292.698l102.355-59.094 102.355 59.094zm-110.933 85.702-110.613-63.862a8.258 8.258 0 0 0-8.258 14.302l110.613 63.862a8.256 8.256 0 0 0 11.28-3.022c2.282-3.949.929-9-3.022-11.28M218.333 452.09l-77.075 44.499a8.256 8.256 0 0 0-3.022 11.28 8.254 8.254 0 0 0 11.28 3.022l77.075-44.499a8.256 8.256 0 0 0 3.022-11.28 8.257 8.257 0 0 0-11.28-3.022M428.368 59.404a8.2 8.2 0 0 0 4.121-1.108l74.278-42.884a8.256 8.256 0 0 0 3.022-11.28 8.256 8.256 0 0 0-11.28-3.022l-74.278 42.884a8.256 8.256 0 0 0-3.022 11.28 8.26 8.26 0 0 0 7.159 4.13m78.399 197.151-106.484-61.478V72.121a8.26 8.26 0 0 0-8.258-8.258 8.26 8.26 0 0 0-8.258 8.258v127.724a8.26 8.26 0 0 0 4.129 7.151l110.613 63.862a8.256 8.256 0 0 0 11.28-3.022c2.282-3.95.929-9-3.022-11.281m-378.536-56.71V72.121a8.26 8.26 0 0 0-4.129-7.151L13.489 1.107A8.258 8.258 0 0 0 5.23 15.41l106.484 61.478v118.189L5.231 256.555a8.256 8.256 0 0 0-3.022 11.28 8.254 8.254 0 0 0 11.28 3.022l110.613-63.862a8.25 8.25 0 0 0 4.129-7.15m13.027 7.152 110.613 63.862a8.25 8.25 0 0 0 8.258 0l110.613-63.862a8.26 8.26 0 0 0 4.129-7.151V72.122a8.26 8.26 0 0 0-4.129-7.151L260.129 1.109a8.26 8.26 0 0 0-8.258 0L141.258 64.971a8.26 8.26 0 0 0-4.129 7.151v127.724a8.25 8.25 0 0 0 4.129 7.151M153.645 76.89 256 17.795 358.355 76.89v118.189L256 254.173l-102.355-59.094z"/><path d="M207.047 408.497a8.26 8.26 0 0 0 8.258-8.258v-4.467c0-4.561-3.697-8.258-8.258-8.258s-8.258 3.697-8.258 8.258v4.467a8.256 8.256 0 0 0 8.258 8.258m0-38.665a8.26 8.26 0 0 0 8.258-8.258v-58.228c0-4.561-3.697-8.258-8.258-8.258s-8.258 3.697-8.258 8.258v58.228a8.257 8.257 0 0 0 8.258 8.258m246.639 38.665a8.26 8.26 0 0 0 8.258-8.258v-4.467a8.26 8.26 0 0 0-8.258-8.258 8.26 8.26 0 0 0-8.258 8.258v4.467a8.256 8.256 0 0 0 8.258 8.258m0-38.665a8.26 8.26 0 0 0 8.258-8.258v-58.228a8.26 8.26 0 0 0-8.258-8.258 8.26 8.26 0 0 0-8.258 8.258v58.228a8.257 8.257 0 0 0 8.258 8.258m-123.32-181.548a8.26 8.26 0 0 0 8.258-8.258v-4.467a8.26 8.26 0 0 0-8.258-8.258 8.26 8.26 0 0 0-8.258 8.258v4.467a8.257 8.257 0 0 0 8.258 8.258m0-38.666a8.26 8.26 0 0 0 8.258-8.258V83.132a8.26 8.26 0 0 0-8.258-8.258 8.26 8.26 0 0 0-8.258 8.258v58.228a8.257 8.257 0 0 0 8.258 8.258"/></svg>