<svg height="512" viewBox="0 0 512 512" width="512" xmlns="http://www.w3.org/2000/svg"><g id="OUTLINE"><path d="m494.85986 259.88379-48-80-.005.00293a7.99381 7.99381 0 0 0 -2.91834-2.85156l-104-58.78223-7.873 13.92969 91.67818 51.81738-126.762 71.648a26.03654 26.03654 0 0 1 6.04956-27.36377 85.25428 85.25428 0 0 0 0-120.56836l-23.02926-23.02935v-4.68652a40.04552 40.04552 0 0 0 -40-40 8.00008 8.00008 0 0 0 -8 8v29.99976l-59.2002-44.40015a7.99994 7.99994 0 0 0 -12.08251 9.71094l36.89025 81.15845-24.47033 19.57593a24.00123 24.00123 0 0 0 -15.48047 40.92578l6.47607 6.47559a23.89306 23.89306 0 0 0 22.17676 6.458l39.59277-8.79883-18.14941 20.74316a96.11365 96.11365 0 0 0 -18.29468 31.35137l-101.19995-57.2 51.67822-29.209-7.873-13.92969-64 36.17383a7.99381 7.99381 0 0 0 -2.91834 2.85156l-.005-.00293-48 80a8.00124 8.00124 0 0 0 2.79 11.00391l44.06982 26.04132v87.071a8.00231 8.00231 0 0 0 4.06348 6.96484l184 104a8.0025 8.0025 0 0 0 7.873 0l184-104a8.00231 8.00231 0 0 0 4.06352-6.96484v-87.071l44.06982-26.04126a8.00124 8.00124 0 0 0 2.79-11.00391zm-182.85986-91.88379a68.80006 68.80006 0 0 1 -20.28418 48.9707 42.023 42.023 0 0 0 -11.842 23.34107 26.96416 26.96416 0 0 1 -1.32056-31.72l15.82862-23.74317a43.15878 43.15878 0 0 0 6.19189-33.14551l-6.77466-30.48583a68.74717 68.74717 0 0 1 18.20089 46.78274zm-93.22607-79.91943a31.94693 31.94693 0 0 0 -10.62891 20.906l-19.91553-43.81469zm1.02 132.30322 34.22656-39.11621a7.99973 7.99973 0 0 0 -7.75586-13.07715l-63.42578 14.09473a7.9572 7.9572 0 0 1 -7.39258-2.15332l-6.47608-6.47559a8 8 0 0 1 5.65725-13.65625h1.37256a8.00033 8.00033 0 0 0 4.99756-1.75293l40-32a8.001 8.001 0 0 0 3.00244-6.24707v-8a16.01833 16.01833 0 0 1 16-16 8.00008 8.00008 0 0 0 8-8v-30.62891a24.04166 24.04166 0 0 1 16 22.62891v8a8.00076 8.00076 0 0 0 2.34326 5.65723l6.35266 6.35278 12.25867 55.16382a27.08161 27.08161 0 0 1 -3.88525 20.7998l-15.82862 23.74317a42.94191 42.94191 0 0 0 17.11255 62.5232c.1803.45361.37122.90454.56812 1.35425l-26.92139 15.2163-52.353-29.59082a80.121 80.121 0 0 1 16.147-28.83594zm-144.94456-25.5835 169.54443 95.82959-46.70044 66.71485-162.68994-96.13473zm5.15063 111.58325 115.93018 68.50416a7.99762 7.99762 0 0 0 10.62353-2.29981l41.44629-59.20898v160.90991l-168-94.95682zm352 72.94846-168 94.95682v-160.90991l41.44629 59.209a7.99762 7.99762 0 0 0 10.62353 2.29981l115.93018-68.50418zm-117.69336-21.9873-46.70044-66.71482 169.54443-95.82959 39.846 66.40967z"/><path d="m240 112h16v16h-16z"/><path d="m368.41064 85.46973a8.0008 8.0008 0 0 0 .43409 6.10839l16 32a7.99954 7.99954 0 0 0 11.95556 2.82129l3.37793-2.5332a49.61313 49.61313 0 0 1 52.24414-4.71094 7.99933 7.99933 0 0 0 11.33887-5.21484l8-32a8.00014 8.00014 0 0 0 -4.79-9.36816l-15.86377-6.34571a65.93823 65.93823 0 0 0 -53.93656 2.24414l-24.74854 12.374a7.99648 7.99648 0 0 0 -4.01172 4.62503zm35.916-2.68848a49.91374 49.91374 0 0 1 40.83836-1.69925l9.38037 3.75195-4.06637 16.26566a65.39982 65.39982 0 0 0 -55.51513 6.94039l-8.231-16.46192z"/><path d="m376.95654 39.0752 5.91211.84472 2.2627-15.83984-5.91211-.84473a68.598 68.598 0 0 0 -74.8086 46.23438l15.17872 5.05957a52.59263 52.59263 0 0 1 57.36718-35.4541z"/><path d="m424 27.056h16v17.889h-16z" transform="matrix(.447 -.894 .894 .447 206.604 406.293)"/><path d="m440 139.056h16v17.889h-16z" transform="matrix(.447 -.894 .894 .447 115.273 482.516)"/><path d="m328 88h16v16h-16z"/><path d="m472 176h16v16h-16z"/><path d="m200 16h16v16h-16z"/><path d="m24.23877 121.94043a8.00084 8.00084 0 0 0 12.56152 4.46 51.28587 51.28587 0 0 1 57.38379-2.96l5.7002 3.41992a8.001 8.001 0 0 0 11.271-3.28223l16-32a8.00073 8.00073 0 0 0 -4.0039-10.93164l-28.04249-12.01855a67.66961 67.66961 0 0 0 -61.30762 4.16113l-13.91748 8.35059a8.00153 8.00153 0 0 0 -3.645 8.80078zm17.79492-35.43066a51.61709 51.61709 0 0 1 46.77246-3.17477l20.24414 8.67578-8.355 16.71094a67.16616 67.16616 0 0 0 -63.5947-1.30472l-3.90186-15.60645z"/><path d="m135.42822 51.3877 3.57422 2.85937 9.99512-12.49414-3.57422-2.85938a75.403 75.403 0 0 0 -85.53955-5.7539l8.23242 13.7207a59.33156 59.33156 0 0 1 67.31201 4.52735z"/><path d="m144 100.686h16v22.627h-16z" transform="matrix(.707 -.707 .707 .707 -34.675 140.292)"/><path d="m20.56055 174.18359-3.42041 5.7002 13.71972 8.23242 3.42041-5.70019a62.96265 62.96265 0 0 1 53.71973-30.41602v-16a79.04316 79.04316 0 0 0 -67.43945 38.18359z"/><path d="m84.686 240h22.627v16h-22.627z" transform="matrix(.707 -.707 .707 .707 -147.24 140.509)"/><path d="m336 291.056h16v17.889h-16z" transform="matrix(.447 -.894 .894 .447 -78.17 473.519)"/><path d="m408 432h16v16h-16z"/><path d="m352 467.056h16v17.889h-16z" transform="matrix(.447 -.894 .894 .447 -226.744 585.12)"/><path d="m119.056 460h17.889v16h-17.889z" transform="matrix(.894 -.447 .447 .894 -195.783 106.651)"/><path d="m48 451.056h16v17.889h-16z" transform="matrix(.447 -.894 .894 .447 -380.48 304.37)"/><path d="m24 387.056h16v17.889h-16z" transform="matrix(.447 -.894 .894 .447 -336.504 247.525)"/><path d="m440 467.056h16v17.889h-16z" transform="matrix(.447 -.894 .894 .447 -178.099 663.83)"/><path d="m494.3999 332.7998-12.7998-9.5996-12.8701 17.16015a32.90012 32.90012 0 0 0 0 39.2793 16.81452 16.81452 0 0 1 -1.55469 21.87109l-8.832 8.832 11.31348 11.31446 8.832-8.832a32.89285 32.89285 0 0 0 3.041-42.78516 16.81994 16.81994 0 0 1 0-20.08008z"/><path d="m343.056 180h17.889v16h-17.889z" transform="matrix(.894 -.447 .447 .894 -46.915 177.267)"/></g></svg>