<svg height="512" viewBox="0 0 512 512" width="512" xmlns="http://www.w3.org/2000/svg"><g id="OUTLINE"><path d="m184 272h144a7.99977 7.99977 0 0 0 8-8v-176a7.99977 7.99977 0 0 0 -8-8h-144a7.99977 7.99977 0 0 0 -8 8v176a7.99977 7.99977 0 0 0 8 8zm63.58936-90.52979-6.76807-20.30421a15.9809 15.9809 0 0 1 -.82129-5.06053v-12.10547a16 16 0 0 1 32 0v12.10547a15.98377 15.98377 0 0 1 -.8208 5.05957l-6.76856 20.30517a7.99923 7.99923 0 0 0 4.01172 9.68506l16.68213 8.34131a23.95346 23.95346 0 0 1 13.08151 18.48926l4.75193 38.01416h-93.87586l4.75189-38.01416a23.95346 23.95346 0 0 1 13.08155-18.48926l16.68213-8.34131a7.99923 7.99923 0 0 0 4.01172-9.68506zm-55.58936-85.47021h128v160h-.938l-5-39.99854a39.91815 39.91815 0 0 0 -21.80223-30.81546l-10.47608-5.23829 4.57471-13.72412a31.94762 31.94762 0 0 0 1.6416-10.11812v-12.10547a32 32 0 0 0 -64 0v12.10547a31.94476 31.94476 0 0 0 1.64209 10.11914l4.57422 13.72314-10.47608 5.23825a39.91815 39.91815 0 0 0 -21.80223 30.81546l-5 39.99854h-.938z"/><path d="m216 288h80v16h-80z"/><path d="m176 320h32v16h-32z"/><path d="m224 320h64v16h-64z"/><path d="m176 360h32v16h-32z"/><path d="m224 360h48v16h-48z"/><path d="m176 400h32v16h-32z"/><path d="m224 400h48v16h-48z"/><path d="m392 288v-248a24.0275 24.0275 0 0 0 -24-24h-224a24.0275 24.0275 0 0 0 -24 24v144.00757a7.98623 7.98623 0 0 0 -6.85986 3.87671l-41.938 69.89648a40.03382 40.03382 0 0 0 -5.15625 27.15576l11.6792 70.07666a24.00251 24.00251 0 0 1 -5.09815 19.14307l-62.81883 76.77783 12.38378 10.13184 62.81836-76.77783a40.001 40.001 0 0 0 8.49707-31.90528l-11.6792-70.07666a24.01733 24.01733 0 0 1 3.09376-16.293l37.82226-63.03711 5.19678 3.11768a24.00034 24.00034 0 0 1 8.0039 33.2998l-19.126 30.60157a24.12377 24.12377 0 0 0 -2.93115 18.541l6.11233 24.44877v111.01514a24.043 24.043 0 0 0 17.97968 23.23474 39.87725 39.87725 0 0 0 -14.13007 11.1471l-26.09668 32.6206 12.49414 9.99512 26.09668-32.6211a23.94945 23.94945 0 0 1 11.15137-7.77539l37.80273-12.60107h119.10034a103.988 103.988 0 1 0 87.60181-160zm-200-256h128v8a8.00917 8.00917 0 0 1 -8 8h-112a8.00917 8.00917 0 0 1 -8-8zm-48 400a8.00917 8.00917 0 0 1 -8-8v-112a7.99868 7.99868 0 0 0 -.23877-1.94043l-6.35107-25.4043a8.0398 8.0398 0 0 1 .97705-6.18017l19.126-30.60108a40.0002 40.0002 0 0 0 -13.34082-55.5l-.17239-.10339v-152.27063a8.00917 8.00917 0 0 1 8-8h32v8a24.02687 24.02687 0 0 0 24 24h112a24.02687 24.02687 0 0 0 24-24v-8h32a8.00917 8.00917 0 0 1 8 8v249.231a103.99639 103.99639 0 0 0 -79.99542 142.769zm248 48a88 88 0 1 1 88-88 88.09957 88.09957 0 0 1 -88 88z"/><path d="m453.65674 362.34326-24-24a8 8 0 0 0 -11.31348 0l-50.34326 50.34326-10.34326-10.34326a8 8 0 0 0 -11.31348 0l-24 24a7.99915 7.99915 0 0 0 0 11.31348l40 40a7.99945 7.99945 0 0 0 11.31348 0l80-80a7.99915 7.99915 0 0 0 0-11.31348zm-85.65674 74.34326-28.68652-28.68652 12.68652-12.68652 10.34326 10.34326a8 8 0 0 0 11.31348 0l50.34326-50.34326 12.68652 12.68652z"/></g></svg>