<?xml version="1.0" encoding="UTF-8"?>
<svg xmlns="http://www.w3.org/2000/svg" viewBox="0 0 512 512" width="512" height="512"><g id="OUTLINE"><path d="M160,384c2.83057,0,5.687-.08691,8.48975-.25879l-.9795-15.9707C165.03174,367.92285,162.50488,368,160,368c-17.895,0-34.59619-3.80273-47.02686-10.709C102.18652,351.29883,96,343.53809,96,336a15.28682,15.28682,0,0,1,.9541-5.25391l-15.02734-5.49218A31.225,31.225,0,0,0,80,336C80,362.916,115.14014,384,160,384Z"/><path d="M24,72a32.03635,32.03635,0,0,1,32,32,8,8,0,0,0,16,0,32.03635,32.03635,0,0,1,32-32,8,8,0,0,0,0-16A32.03635,32.03635,0,0,1,72,24a8,8,0,0,0-16,0A32.03635,32.03635,0,0,1,24,56a8,8,0,0,0,0,16ZM64,50.50684A48.39377,48.39377,0,0,0,77.49268,64,48.39377,48.39377,0,0,0,64,77.49316,48.39377,48.39377,0,0,0,50.50732,64,48.39377,48.39377,0,0,0,64,50.50684Z"/><path d="M168.97461,269.86523l10.88086-11.73046A112.01423,112.01423,0,0,1,311.90674,78.92871l7.999-13.85742A128.01091,128.01091,0,0,0,168.97461,269.86523Z"/><path d="M256,288a112.23259,112.23259,0,0,1-52.26123-12.91309l-7.47754,14.14454a128.01338,128.01338,0,0,0,153.604-200.25684L338.13477,99.85547A112.00052,112.00052,0,0,1,256,288Z"/><path d="M252.11475,89.00684l-72,40A8.00038,8.00038,0,0,0,176,136v80a8.00038,8.00038,0,0,0,4.11475,6.99316l72,40a7.99973,7.99973,0,0,0,7.7705,0l72-40A8.00038,8.00038,0,0,0,336,216V136a8.00038,8.00038,0,0,0-4.11475-6.99316l-72-40A8.00313,8.00313,0,0,0,252.11475,89.00684ZM320,211.293l-64,35.55566L192,211.293V140.707l64-35.55566L320,140.707Z"/><path d="M220.42236,144.84473l7.15528,14.31054,28.07226-14.03613L288,164.5293V192h16V160a8.00153,8.00153,0,0,0-3.88379-6.86035l-40-24a7.99923,7.99923,0,0,0-7.69385-.29492Z"/><path d="M451.712,212.84106A159.86016,159.86016,0,0,0,456,176c0-88.22461-71.77588-160-160-160H256C167.77588,16,96,87.77539,96,176a159.21493,159.21493,0,0,0,10.15088,56.07617c-23.9978,7.47681-44.81506,19.76392-60.70654,35.957C26.18164,287.66211,16,311.165,16,336v56c0,28.31543,15.34912,54.74414,43.21973,74.418C86.24463,485.49414,122.03564,496,160,496s73.75537-10.50586,100.78027-29.582c14.42078-10.17969,25.47913-22.17066,32.80365-35.29273A194.04793,194.04793,0,0,0,352,440c37.96436,0,73.75537-10.50586,100.78027-29.582C480.65088,390.74414,496,364.31543,496,336V288C496,259.4624,479.94543,232.37061,451.712,212.84106ZM480,288c0,48.52344-57.42041,88-128,88a177.36849,177.36849,0,0,1-48-6.44849V353.15869A167.52285,167.52285,0,0,0,352,360c29.23975,0,56.84521-7.07812,77.73193-19.93164C451.83008,326.46973,464,307.97754,464,288c0-16.10205-8.19092-31.59326-23.15033-44.08813a158.99681,158.99681,0,0,0,6.07-14.78052C468.074,245.26465,480,266.2688,480,288ZM360,391.83789a196.171,196.171,0,0,0,32-3.87109v31.62768a179.38974,179.38974,0,0,1-32,4.22852ZM407.68585,384A162.80536,162.80536,0,0,0,440,370.439v29.40528a140.67818,140.67818,0,0,1-32,15.27466V384Zm2.21387-296A144.09834,144.09834,0,0,1,428.665,120H405.87811a159.62066,159.62066,0,0,0-16.32147-32ZM448,288c0,14.21289-9.46582,27.86426-26.65381,38.44141C402.94678,337.76465,378.31934,344,352,344a149.02075,149.02075,0,0,1-48-7.64746V336c0-.06641-.00482-.13354-.00494-.2A160.13039,160.13039,0,0,0,433.1048,258.394C442.7525,267.30957,448,277.62354,448,288ZM415.7998,168a159.33857,159.33857,0,0,0-4.86218-32h23.4046a143.23861,143.23861,0,0,1,5.43183,32Zm0,16h23.97425a143.23861,143.23861,0,0,1-5.43183,32h-23.4046A159.33857,159.33857,0,0,0,415.7998,184Zm-9.92169,48H428.665a144.09834,144.09834,0,0,1-18.76526,32H389.55664A159.62066,159.62066,0,0,0,405.87811,232Zm-28.39172,48H395.498a144.06347,144.06347,0,0,1-58.88709,34.16016A161.16736,161.16736,0,0,0,377.48639,280ZM395.498,72h-18.0116A161.16736,161.16736,0,0,0,336.6109,37.83984,144.06347,144.06347,0,0,1,395.498,72ZM256,32c79.40186,0,144,64.59766,144,144S335.40186,320,256,320,112,255.40234,112,176,176.59814,32,256,32ZM56.86377,279.24023c14.17346-14.44287,33.70361-25.75415,55.70489-32.39428a159.96291,159.96291,0,0,0,7.97248,14.209C77.181,272.55005,48,302.02466,48,336c0,12.7666,4.25732,25.44531,12.31152,36.665l12.998-9.33008C67.13232,354.72949,64,345.5332,64,336c0-14.15234,6.92627-27.61719,20.02979-38.9375,11.916-10.29395,28.2293-17.95679,46.46685-21.93408a161.40287,161.40287,0,0,0,12.40894,13.94531c-16.83716,2.14111-32.11688,7.41773-43.43341,15.188l9.05566,13.18945C120.97949,308.90332,139.74023,304,160,304V303.919a159.34512,159.34512,0,0,0,63.61,28.78417A14.87132,14.87132,0,0,1,224,336c0,11.19043-13.71533,22.49512-34.12891,28.12988l4.25782,15.42383C222.42334,371.74219,240,355.05371,240,336c0-.2666-.01086-.533-.01782-.79932Q247.8863,335.98988,256,336h32c0,52.93457-57.42041,96-128,96S32,388.93457,32,336C32,315.44238,40.59766,295.81543,56.86377,279.24023ZM72,424.73486a156.56942,156.56942,0,0,0,32,14.52784v31.8562a140.67818,140.67818,0,0,1-32-15.27466Zm48,18.91187a182.47327,182.47327,0,0,0,32,4.17847V479.823a179.38974,179.38974,0,0,1-32-4.22852Zm48,4.17847a182.47327,182.47327,0,0,0,32-4.17847v31.94775a179.38974,179.38974,0,0,1-32,4.22852Zm48-8.5625a156.56942,156.56942,0,0,0,32-14.52784v31.10938a140.67818,140.67818,0,0,1-32,15.27466ZM32,392v-4.47607a117.36773,117.36773,0,0,0,24,26.02246V443.241C40.90308,428.79956,32,411.10205,32,392Zm232,51.241V413.54639a117.36773,117.36773,0,0,0,24-26.02246V392C288,411.10205,279.09692,428.79956,264,443.241ZM304,392v-5.88086a192.50807,192.50807,0,0,0,40,5.72241v31.98462a176.6859,176.6859,0,0,1-43.92767-7.4397A77.92923,77.92923,0,0,0,304,392Zm176-56c0,19.10205-8.90308,36.79956-24,51.241V360.06445a112.26486,112.26486,0,0,0,24-24.15063Z"/><path d="M98.53711,385.02148l-7.81934,13.959C110.59326,410.11523,134.55078,416,160,416c46.938,0,89.21777-21.043,105.207-52.3623l-14.25-7.2754C237.63135,382.46289,201.07861,400,160,400,137.60742,400,115.7793,394.68066,98.53711,385.02148Z"/><path d="M352,464a211.12073,211.12073,0,0,1-38.53613-3.50391l-2.92774,15.73047A227.21078,227.21078,0,0,0,352,480c36.80127,0,72.70068-8.89551,101.08545-25.04688l-7.91309-13.90624C419.16064,455.84863,386.07129,464,352,464Z"/><path d="M459.21924,431.89746l9.56152,12.82813A129.74779,129.74779,0,0,0,485.834,429.58691L474.167,418.6377A113.70147,113.70147,0,0,1,459.21924,431.89746Z"/><path d="M62.30127,126.00586c-1.40967,5.47754-2.59912,11.08594-3.53613,16.66992l15.77929,2.64844c.86182-5.13574,1.95606-10.29395,3.252-15.33008Z"/><path d="M56.68408,159.34277C56.23,164.84863,56,170.45312,56,176a200.70085,200.70085,0,0,0,6.30127,49.99414l15.49512-3.98828A184.68568,184.68568,0,0,1,72,176c0-5.11035.21191-10.27246.63037-15.34277Z"/></g></svg>
